<svg width="65" height="24" fill="none" xmlns="http://www.w3.org/2000/svg"><path d="M20.702 11.746a.609.609 0 0 0-.38-.145 2.44 2.44 0 0 0-1.165.579c-.38.295-.804.512-1.253.639-.443 0-.785-.36-1.032-1.078a8.108 8.108 0 0 1-.288-2.392 17.11 17.11 0 0 1 .673-4.224c.04-.14.07-.283.087-.43 0-.162-.125-.335-.367-.507a1.225 1.225 0 0 0-.731-.238 2.268 2.268 0 0 0-1.052.522c-.274.25-.566.473-.873.667a5.52 5.52 0 0 0 .18-1.245 2.172 2.172 0 0 0-.248-1.041 1.887 1.887 0 0 0-.697-.745 2.188 2.188 0 0 0-1.22-.373 1.8 1.8 0 0 0-1.047.246 2.082 2.082 0 0 0-.777.822 2.433 2.433 0 0 0-.288 1.156 3.068 3.068 0 0 0 .306 1.546c.234.471.584.857 1.01 1.112l.204.116c-.53 2.21-1.625 4.286-4.761 6.445.93-7.461 1.395-11.208 1.395-11.243 0-.792-.305-1.198-.86-1.207a.824.824 0 0 0-.38.092.92.92 0 0 0-.31.262 2.885 2.885 0 0 0-1.44-.354c-1.262 0-2.34.766-3.233 2.298A10.787 10.787 0 0 0 .735 8.37c0 2.002.426 3.353 1.278 4.052.41.318.9.481 1.399.466a2.94 2.94 0 0 0 1.77-.657l-.367 2.779A506.28 506.28 0 0 1 1.8 17.523l-.075.112H1.7c-.447.337-.844.75-1.178 1.222a3.68 3.68 0 0 0-.485 1.968c.005.41.085.814.233 1.19.149.374.364.712.632.992.271.312.596.561.954.732.359.17.744.26 1.134.261a2.84 2.84 0 0 0 1.817-.667c.343-.297.629-.669.84-1.093.21-.424.343-.891.388-1.373l.597-4.71c4.005-3.161 5.864-5.022 6.966-9.074.48-.034.951-.17 1.387-.4a14.66 14.66 0 0 0-.247 2.265c0 .322-.025.63-.025.933 0 1.53.165 2.608.493 3.236.17.484.453.908.82 1.226.368.319.806.52 1.268.583h.318a3.781 3.781 0 0 0 2.422-.933c.635-.55.965-1.086.99-1.613a.892.892 0 0 0-.095-.359.794.794 0 0 0-.227-.275zm-16.5 7.969c-.118 1.116-.384 1.776-.798 1.982-.133.059-.275.09-.418.088a.736.736 0 0 1-.5-.167.892.892 0 0 1-.298-.476 1.456 1.456 0 0 1-.08-.467c0-.466.318-.965.92-1.492 0 0 .442-.391 1.282-1.11l.125-.107-.234 1.749zm1.474-11.9a6.158 6.158 0 0 1-.418 1.516c-.27.377-.59.706-.948.974a1.504 1.504 0 0 1-.86.396c-.464 0-.727-.494-.786-1.487v-.396c.007-1.286.253-2.556.723-3.73.547-1.4 1.215-2.187 1.996-2.43.15-.041.305-.062.46-.06.207.01.41.073.593.181a44.84 44.84 0 0 1-.76 5.036zm6.79-2.634a1.03 1.03 0 0 1-.507-.39 1.225 1.225 0 0 1-.215-.645.54.54 0 0 1 .091-.341.442.442 0 0 1 .272-.186.428.428 0 0 1 .15-.028.384.384 0 0 1 .304.08c.088.07.148.175.168.293.016.059.025.12.026.182-.046.36-.144.709-.289 1.035z" fill="#28C985"/><path d="M19.054 10.575c0-.34.017-.679.05-1.016.147-1.535.611-3.01 1.357-4.309.894-1.554 1.973-2.331 3.237-2.331.33-.002.659.047.977.144 1.114.358 1.67 1.24 1.67 2.644v.327a4.886 4.886 0 0 1-.457 1.78 4.407 4.407 0 0 1-1.063 1.423c-.885.841-2.015 1.296-3.178 1.278-.225 0-.45-.024-.672-.07-.02.195-.028.391-.025.587-.024.44.064.878.255 1.264.225.382.693.606 1.403.671.31 0 .62-.037.923-.112a6.06 6.06 0 0 0 1.888-.993c.471-.345 1.883-1.483 2.088-1.483a.666.666 0 0 1 .342.117.796.796 0 0 1 .31.32.92.92 0 0 1 .108.454 1.177 1.177 0 0 1-.063.364c-.23.615-1.992 2.154-3.132 2.7a6.624 6.624 0 0 1-2.794.76c-.28 0-.56-.028-.835-.084-1.59-.345-2.387-1.823-2.39-4.435zm4.08-5.437c-.768.579-1.371 1.682-1.808 3.311.197.058.4.088.605.089.67.012 1.321-.246 1.834-.728.267-.22.485-.506.637-.836.151-.33.232-.695.235-1.066 0-.732-.204-1.105-.618-1.115a1.562 1.562 0 0 0-.885.345z" fill="#28C985"/><path d="M27.342 10.575a10.86 10.86 0 0 1 1.424-5.325c.9-1.554 1.978-2.331 3.237-2.331.33-.002.659.047.977.144 1.114.358 1.67 1.24 1.67 2.644v.327a4.854 4.854 0 0 1-.454 1.782 4.374 4.374 0 0 1-1.066 1.421c-.885.842-2.015 1.296-3.178 1.278-.226 0-.45-.024-.672-.07-.02.195-.028.391-.025.587-.021.44.067.877.254 1.264.226.382.698.606 1.408.671.31 0 .62-.037.923-.112a6.09 6.09 0 0 0 1.883-.993c.476-.345 1.888-1.483 2.089-1.483.12.006.239.046.342.117a.796.796 0 0 1 .31.32.92.92 0 0 1 .108.454 1.18 1.18 0 0 1-.063.364c-.226.615-1.988 2.154-3.132 2.7a6.608 6.608 0 0 1-2.794.76c-.28 0-.56-.027-.836-.084-1.6-.345-2.402-1.823-2.405-4.435zm4.08-5.437c-.764.579-1.37 1.684-1.808 3.311.199.058.404.088.61.089.67.011 1.32-.247 1.833-.728.267-.22.485-.507.636-.837.151-.33.232-.694.237-1.065 0-.732-.209-1.105-.623-1.115-.318.02-.625.14-.885.345z" fill="#28C985"/><path d="m35.215 13.457 1.077-9.116c0-.158.038-.312.063-.466.155-.811.485-1.222.99-1.222.094 0 .188.01.28.033.392.103.584.513.584 1.231 0 .103 0 .285-.025.536v.401a.612.612 0 0 1 .063-.116 3.17 3.17 0 0 1 1.096-1.363 2.699 2.699 0 0 1 1.581-.488c.41-.002.809.141 1.14.41.244.187.443.44.578.735.135.294.202.622.195.953v3.11c0 1.935.054 3.073.154 3.418.025.075.05.154.075.242.238.718.573 1.082 1.003 1.082.085 0 .17-.01.255-.028.4-.147.77-.38 1.09-.685.316-.304.705-.5 1.119-.565.112.001.221.035.317.099a.86.86 0 0 1 .304.356c.07.149.1.316.089.483-.05.466-.418.97-1.065 1.53a3.896 3.896 0 0 1-2.351.876 2.35 2.35 0 0 1-1.65-.57c-.902-.81-1.355-2.592-1.358-5.343v-.965c0-.448.026-.849.026-1.161 0-1.012-.1-1.53-.305-1.557a.38.38 0 0 0-.126.028c-.481.195-1.1 1.271-1.854 3.226a22.944 22.944 0 0 0-1.253 4.286l-.025.405a2.305 2.305 0 0 1-.255.933 1.152 1.152 0 0 1-.371.477.983.983 0 0 1-.54.194.711.711 0 0 1-.304-.07c-.4-.219-.597-.657-.597-1.329z" fill="#28C985"/><path d="M44.95 10.347c0-.342.023-.683.067-1.021.141-1.53.599-3.004 1.336-4.304.88-1.53 1.937-2.294 3.17-2.294a2.808 2.808 0 0 1 1.566.466c.375.224.685.562.895.975.21.412.311.883.292 1.357v.354a4.644 4.644 0 0 1-.605 2.1 4.035 4.035 0 0 1-1.459 1.486 4.877 4.877 0 0 1-2.69.84 3.005 3.005 0 0 1-.68-.075 4.323 4.323 0 0 0-.038.564c-.003.318.045.634.142.932.114.331.322.611.592.797.27.187.588.269.904.234 1.127-.046 2.212-.493 3.094-1.278a14.132 14.132 0 0 0 3.387-4.472l-.2-.111a2.688 2.688 0 0 1-1.02-1.115 3.096 3.096 0 0 1-.317-1.553c.002-.408.103-.807.293-1.156.185-.348.454-.632.775-.82a1.797 1.797 0 0 1 1.046-.248c.43-.003.854.126 1.223.373.29.172.53.43.697.745.166.315.252.675.247 1.041a5.77 5.77 0 0 1-.18 1.245c.31-.19.603-.41.878-.657a2.277 2.277 0 0 1 1.048-.523c.259-.004.513.077.73.234.247.177.373.345.373.512-.02.146-.05.29-.092.43a17.306 17.306 0 0 0-.673 4.224 7.98 7.98 0 0 0 .293 2.392c.246.713.589 1.072 1.027 1.072a3.584 3.584 0 0 0 1.253-.634c.34-.299.742-.498 1.17-.578.136.003.27.054.38.145.097.07.178.167.236.281.057.114.09.241.093.371-.025.527-.355 1.064-.99 1.614a3.78 3.78 0 0 1-2.426.932h-.317a2.443 2.443 0 0 1-1.268-.583 2.877 2.877 0 0 1-.82-1.226c-.326-.63-.493-1.711-.493-3.236 0-.294 0-.597.029-.932.02-.766.103-1.527.246-2.276a3.397 3.397 0 0 1-1.386.397 15.706 15.706 0 0 1-2.924 4.592c-1.796 1.959-3.689 2.938-5.68 2.938h-.204c-2.01-.103-3.017-1.62-3.02-4.55zM49.026 5l-.062.046c-.758.579-1.35 1.637-1.775 3.176.198.039.4.058.601.056a2.822 2.822 0 0 0 1.905-.686c.262-.203.478-.473.629-.788.15-.314.233-.664.24-1.02-.001-.1-.01-.198-.026-.295-.072-.522-.277-.792-.614-.811a2.249 2.249 0 0 0-.898.34V5zm5.902-.606c.01.235.085.46.214.647.13.186.307.323.508.392.149-.325.248-.677.292-1.04 0-.06-.009-.12-.025-.177a.475.475 0 0 0-.167-.29.385.385 0 0 0-.3-.083.469.469 0 0 0-.155.028.443.443 0 0 0-.279.19c-.068.1-.1.226-.088.351v-.018z" fill="#28C985"/></svg>