<svg width="97" height="95" fill="none" xmlns="http://www.w3.org/2000/svg"><path d="M94.055 29.012H2.962V81.06h91.093v-52.05z" fill="url(#a)"/><path d="M81.934 29.012h-66.85V81.06h66.85v-52.05z" fill="#062023" stroke="#062023" stroke-width="3" stroke-miterlimit="10" stroke-linecap="round" stroke-linejoin="round"/><path d="M48.459 78.676c-17.899 0-17.063-19.83-10.486-26.91-.48 1.77-.836 6.184 2.348 7.904-1.45-4.204-3.012-11.985 10.842-21.832-5.2 7.118 6.135 7.843 3.258 24.451 4.217-2.643 2.065-13.473-.91-15.65 11.322 4.66 16.596 32.037-5.052 32.037z" fill="#F5AE3D"/><path d="M48.68 77.975c-6.835 0-9.982-6.208-7.08-12.81-.259.935.59 2.963 2.778 2.766-.762-2.225-1.537-6.92 5.138-10.424-1.217 4.413 2.877 5.323 2.89 9.994.798-.332 2.003-1.5 1.99-3.676 3.971 8.716.197 14.15-5.716 14.15z" fill="#FEF7EC"/><path d="M96.563 81.06H0v13.658h96.563V81.061z" fill="url(#b)"/><path d="M96.563 15.366H0v13.658h96.563V15.366z" fill="url(#c)"/><path d="M84.897 0H12.133v15.367h72.764V0z" fill="url(#d)"/><defs><linearGradient id="a" x1="12.723" y1="19.253" x2="84.291" y2="90.822" gradientUnits="userSpaceOnUse"><stop offset=".002" stop-color="#28C985"/><stop offset="1" stop-color="#18808A"/></linearGradient><linearGradient id="b" x1="20.726" y1="60.332" x2="75.831" y2="115.437" gradientUnits="userSpaceOnUse"><stop offset=".002" stop-color="#28C985"/><stop offset="1" stop-color="#18808A"/></linearGradient><linearGradient id="c" x1="20.726" y1="-5.362" x2="75.831" y2="49.742" gradientUnits="userSpaceOnUse"><stop offset=".002" stop-color="#28C985"/><stop offset="1" stop-color="#18808A"/></linearGradient><linearGradient id="d" x1="26.477" y1="-14.349" x2="70.538" y2="29.713" gradientUnits="userSpaceOnUse"><stop offset=".002" stop-color="#28C985"/><stop offset="1" stop-color="#18808A"/></linearGradient></defs></svg>