<svg width="75" height="113" fill="none" xmlns="http://www.w3.org/2000/svg"><path d="M75 15.796H0v97.013h75V15.796z" fill="url(#a)"/><path d="M69.402 19.992H5.598V95.41h63.804V19.992z" fill="#FEF7EC"/><path d="M64.258 26.082H10.755v63.235h53.505V26.082zM67.177 68.82h-.366c-.341 0-.62-.29-.62-.657l-.745-20.914c0-.367.278-.657.62-.657h1.844c.342 0 .62.29.62.657l-.746 20.914c.013.354-.265.657-.607.657z" fill="#062023"/><path d="M37.444 86.45c-21.016 0-20.03-23.278-12.309-31.593-.569 2.085-.973 7.254 2.755 9.275-1.706-4.928-3.538-14.064 12.738-25.627-6.104 8.353 7.203 9.212 3.816 28.71 4.954-3.095 2.427-15.82-1.074-18.373 13.307 5.446 19.499 37.607-5.926 37.607z" fill="#F5AE3D"/><path d="M37.71 85.615c-8.037 0-11.715-7.291-8.303-15.037-.303 1.099.683 3.475 3.26 3.247-.897-2.603-1.806-8.125 6.041-12.232-1.44 5.18 3.374 6.242 3.387 11.74.947-.392 2.35-1.77 2.338-4.31 4.65 10.224.227 16.593-6.723 16.593z" fill="#FEF7EC"/><path d="M47.754 0H27.257v15.796h20.497V0z" fill="url(#b)"/><defs><linearGradient id="a" x1="-5.501" y1="21.295" x2="80.507" y2="107.303" gradientUnits="userSpaceOnUse"><stop offset=".002" stop-color="#28C985"/><stop offset="1" stop-color="#18808A"/></linearGradient><linearGradient id="b" x1="28.429" y1="-1.177" x2="46.576" y2="16.971" gradientUnits="userSpaceOnUse"><stop offset=".002" stop-color="#28C985"/><stop offset="1" stop-color="#18808A"/></linearGradient></defs></svg>