<svg width="125" height="98" fill="none" xmlns="http://www.w3.org/2000/svg"><path d="M31.358 94.607v3.288H7.049v-3.288" fill="url(#a)"/><path d="M118.874 94.606v3.288h-24.31v-3.288" fill="url(#b)"/><path d="M124.264 94.607H1.657a.69.69 0 0 1-.696-.697V.697A.69.69 0 0 1 1.657 0h122.607a.69.69 0 0 1 .697.697V93.91a.69.69 0 0 1-.697.697z" fill="url(#c)"/><path d="M41.876 80.69c18.366 0 33.254-14.888 33.254-33.254 0-18.365-14.888-33.253-33.254-33.253-18.365 0-33.253 14.888-33.253 33.253 0 18.366 14.888 33.254 33.253 33.254z" fill="#FEF7EC" stroke="#062023" stroke-miterlimit="10" stroke-linecap="round" stroke-linejoin="round"/><path d="M41.918 47.896c.237-.71.195-1.351.083-1.95a11.878 11.878 0 0 0-.57-1.77c-.474-1.17-1.046-2.354-1.575-3.58-1.087-2.452-2.09-5.057-2.717-7.885a24.87 24.87 0 0 1-.57-4.374c-.056-1.49.055-3.037.403-4.542.335-1.504.934-2.981 1.783-4.263.418-.64.906-1.24 1.463-1.755a8.377 8.377 0 0 1 1.797-1.338c-.167.739-.32 1.421-.431 2.09a25.231 25.231 0 0 0-.251 1.964 23.47 23.47 0 0 0 .014 3.706c.195 2.41.696 4.82 1.24 7.328.278 1.254.557 2.535.821 3.859.265 1.323.516 2.675.67 4.082.083.71.138 1.42.152 2.16.014.737 0 1.49-.097 2.256-.098.766-.265 1.56-.613 2.299-.167.376-.39.724-.669 1.03a2.452 2.452 0 0 1-.933.683z" fill="url(#d)"/><path d="M14.669 63.513a59.375 59.375 0 0 0 2.034-.655c.64-.237 1.254-.487 1.825-.752a21.909 21.909 0 0 0 3.204-1.867c1.978-1.393 3.775-3.037 5.656-4.806.933-.892 1.88-1.797 2.884-2.703 1.003-.905 2.047-1.825 3.19-2.689a21.79 21.79 0 0 1 1.81-1.24c.642-.39 1.324-.752 2.063-1.044.376-.14.752-.279 1.142-.363.39-.097.808-.167 1.212-.167a4.43 4.43 0 0 1 1.212.126c.39.111.738.278 1.045.515a4.3 4.3 0 0 0-1.797.836 9.49 9.49 0 0 0-1.282 1.31c-.794.96-1.518 2.033-2.298 3.106-1.547 2.16-3.26 4.375-5.364 6.353-1.059.989-2.201 1.922-3.483 2.744a17.256 17.256 0 0 1-4.151 1.978c-1.477.474-3.065.697-4.597.6-.767-.056-1.533-.168-2.257-.39-.71-.224-1.407-.502-2.048-.892z" fill="url(#e)"/><path d="M69.154 63.653a64.414 64.414 0 0 0-1.588-1.435 20.667 20.667 0 0 0-1.574-1.212c-1.045-.739-2.118-1.324-3.218-1.84-2.188-1.016-4.528-1.754-6.994-2.493-1.24-.362-2.493-.738-3.789-1.142a43.277 43.277 0 0 1-3.928-1.421c-.67-.279-1.324-.6-1.979-.947a13.571 13.571 0 0 1-1.936-1.268 9.718 9.718 0 0 1-.892-.808 5.198 5.198 0 0 1-.752-.975 3.771 3.771 0 0 1-.487-1.115 3.27 3.27 0 0 1-.084-1.156 3.975 3.975 0 0 0 1.63 1.128c.571.223 1.17.349 1.783.46 1.226.209 2.522.306 3.845.446 2.647.264 5.42.64 8.191 1.477 1.394.417 2.773.947 4.124 1.643a17.16 17.16 0 0 1 3.79 2.605c1.141 1.045 2.13 2.313 2.813 3.692.349.697.613 1.407.794 2.146.167.724.279 1.476.251 2.215z" fill="url(#f)"/><path d="M41.877 74.714c15.064 0 27.276-12.213 27.276-27.277 0-15.065-12.212-27.278-27.277-27.278-15.064 0-27.276 12.213-27.276 27.278 0 15.064 12.212 27.277 27.276 27.277z" stroke="#062023" stroke-miterlimit="10" stroke-linecap="round" stroke-linejoin="round"/><path d="M41.877 67.86c11.28 0 20.423-9.145 20.423-20.424 0-11.28-9.144-20.423-20.423-20.423-11.28 0-20.423 9.143-20.423 20.423 0 11.28 9.144 20.423 20.423 20.423z" stroke="#062023" stroke-miterlimit="10" stroke-linecap="round" stroke-linejoin="round"/><path d="M41.877 52.424a4.987 4.987 0 1 0 0-9.975 4.987 4.987 0 0 0 0 9.975zM38.296 51.059 18.5 71.092M65.253 23.795 45.457 43.828M45.499 51.017l20.019 19.81M18.235 24.06l20.02 19.81" stroke="#062023" stroke-miterlimit="10" stroke-linecap="round" stroke-linejoin="round"/><path d="M115.907 86.68H83.308a1.397 1.397 0 0 1-1.393-1.393V8.094c0-.766.627-1.393 1.393-1.393h32.599c.766 0 1.393.627 1.393 1.393v77.193c0 .766-.627 1.393-1.393 1.393z" stroke="#FEF7EC" stroke-width="2" stroke-miterlimit="10" stroke-linecap="round" stroke-linejoin="round"/><defs><linearGradient id="a" x1="12.304" y1="89.353" x2="26.103" y2="103.151" gradientUnits="userSpaceOnUse"><stop offset=".002" stop-color="#28C985"/><stop offset="1" stop-color="#18808A"/></linearGradient><linearGradient id="b" x1="99.82" y1="89.352" x2="113.619" y2="103.15" gradientUnits="userSpaceOnUse"><stop offset=".002" stop-color="#28C985"/><stop offset="1" stop-color="#18808A"/></linearGradient><linearGradient id="c" x1="8.512" y1="-7.143" x2="117.412" y2="101.755" gradientUnits="userSpaceOnUse"><stop offset=".002" stop-color="#28C985"/><stop offset="1" stop-color="#18808A"/></linearGradient><linearGradient id="d" x1="34.598" y1="30.43" x2="48.55" y2="33.723" gradientUnits="userSpaceOnUse"><stop offset=".002" stop-color="#28C985"/><stop offset="1" stop-color="#18808A"/></linearGradient><linearGradient id="e" x1="30.494" y1="62.949" x2="26.341" y2="49.125" gradientUnits="userSpaceOnUse"><stop offset=".002" stop-color="#28C985"/><stop offset="1" stop-color="#18808A"/></linearGradient><linearGradient id="f" x1="60.757" y1="50.234" x2="50.862" y2="60.743" gradientUnits="userSpaceOnUse"><stop offset=".002" stop-color="#28C985"/><stop offset="1" stop-color="#18808A"/></linearGradient></defs></svg>