<svg width="118" height="98" fill="none" xmlns="http://www.w3.org/2000/svg"><path d="M107.241 97.6H2.013A2.012 2.012 0 0 1 0 95.587V27.084c0-1.118.908-2.013 2.013-2.013H107.24c1.118 0 2.012.908 2.012 2.013v68.503a1.996 1.996 0 0 1-2.012 2.013z" fill="url(#a)"/><path d="M12.614 92.64H9.26a1.131 1.131 0 0 1-1.131-1.13V31.16c0-.63.513-1.13 1.13-1.13h3.342c.631 0 1.131.512 1.131 1.13v60.336c.013.63-.5 1.144-1.118 1.144zM25.097 92.64h-3.341a1.131 1.131 0 0 1-1.131-1.13V31.16c0-.63.513-1.13 1.131-1.13h3.34c.632 0 1.132.512 1.132 1.13v60.336c0 .63-.513 1.144-1.131 1.144zM37.58 92.64h-3.342a1.131 1.131 0 0 1-1.131-1.13V31.16c0-.63.513-1.13 1.131-1.13h3.341c.632 0 1.131.512 1.131 1.13v60.336c0 .63-.5 1.144-1.13 1.144zM50.062 92.64h-3.34a1.131 1.131 0 0 1-1.132-1.13V31.16c0-.63.513-1.13 1.131-1.13h3.341c.632 0 1.132.512 1.132 1.13v60.336c0 .63-.5 1.144-1.132 1.144zM62.544 92.64h-3.34a1.131 1.131 0 0 1-1.132-1.13V31.16c0-.63.513-1.13 1.131-1.13h3.341c.632 0 1.131.512 1.131 1.13v60.336c0 .63-.5 1.144-1.13 1.144zM75.028 92.64h-3.341a1.131 1.131 0 0 1-1.132-1.13V31.16c0-.63.513-1.13 1.132-1.13h3.34c.632 0 1.132.512 1.132 1.13v60.336c.013.63-.5 1.144-1.131 1.144zM87.51 92.64h-3.341a1.131 1.131 0 0 1-1.132-1.13V31.16c0-.63.513-1.13 1.132-1.13h3.34c.632 0 1.132.512 1.132 1.13v60.336c.013.63-.5 1.144-1.132 1.144zM99.993 92.64h-3.341a1.131 1.131 0 0 1-1.131-1.13V31.16c0-.63.513-1.13 1.13-1.13h3.342c.631 0 1.131.512 1.131 1.13v60.336c.013.63-.5 1.144-1.131 1.144z" fill="#FEF7EC" stroke="#FEF7EC" stroke-miterlimit="10" stroke-linecap="round" stroke-linejoin="round"/><path d="M110.988 30.938h-1.723v-3.183h1.723" fill="url(#b)"/><path d="M114.316 33.029a3.683 3.683 0 1 0 0-7.366 3.683 3.683 0 0 0 0 7.366z" fill="url(#c)"/><path d="M114.316 32.016a2.67 2.67 0 1 0-.001-5.34 2.67 2.67 0 0 0 .001 5.34z" stroke="#FEF7EC" stroke-width=".5" stroke-miterlimit="10" stroke-linecap="round" stroke-linejoin="round"/><path d="M32.582 19.086c3.184-8.102-8.839-10.26-.144-18.086M54.339 19.086c3.183-8.102-8.84-10.26-.145-18.086M76.107 19.086c3.183-8.102-8.84-10.26-.145-18.086" stroke="#F5AE3D" stroke-width="2" stroke-miterlimit="10" stroke-linecap="round" stroke-linejoin="round"/><defs><linearGradient id="a" x1="30.932" y1="17.779" x2="87.481" y2="121.704" gradientUnits="userSpaceOnUse"><stop offset=".002" stop-color="#28C985"/><stop offset="1" stop-color="#18808A"/></linearGradient><linearGradient id="b" x1="109.398" y1="29.352" x2="110.909" y2="29.352" gradientUnits="userSpaceOnUse"><stop offset=".002" stop-color="#28C985"/><stop offset="1" stop-color="#18808A"/></linearGradient><linearGradient id="c" x1="114.329" y1="24.442" x2="114.29" y2="36.68" gradientUnits="userSpaceOnUse"><stop offset=".002" stop-color="#28C985"/><stop offset="1" stop-color="#18808A"/></linearGradient></defs></svg>