<svg width="81" height="105" fill="none" xmlns="http://www.w3.org/2000/svg"><path d="M80.317 104.775H.682a.676.676 0 0 1-.682-.683V.682C0 .3.3 0 .682 0h79.635C80.7 0 81 .3 81 .682v103.41c0 .369-.3.683-.683.683z" fill="url(#a)"/><path d="M64.691 100.393H16.323a1.42 1.42 0 0 1-1.42-1.337L9.84 5.814a1.38 1.38 0 0 1 1.365-1.447H69.81c.791 0 1.406.655 1.365 1.447l-5.077 93.242a1.408 1.408 0 0 1-1.406 1.337z" fill="#FEF7EC" stroke="#062023" stroke-width="3" stroke-miterlimit="10" stroke-linecap="round" stroke-linejoin="round"/><path d="M56.202 95.153H24.798a2.738 2.738 0 0 1-2.73-2.73V78.557a2.738 2.738 0 0 1 2.73-2.73h31.404a2.738 2.738 0 0 1 2.73 2.73v13.866a2.738 2.738 0 0 1-2.73 2.73z" fill="url(#b)"/><path d="M52.516 87.756a2.266 2.266 0 1 0 0-4.531 2.266 2.266 0 0 0 0 4.53zM28.483 87.757a2.266 2.266 0 1 0 0-4.531 2.266 2.266 0 0 0 0 4.53z" fill="#FEF7EC"/><path d="M47.958 80.632H33.055v9.717h14.903v-9.717z" fill="#062023"/><defs><linearGradient id="a" x1="-5.742" y1="6.141" x2="86.747" y2="98.63" gradientUnits="userSpaceOnUse"><stop offset=".002" stop-color="#28C985"/><stop offset="1" stop-color="#18808A"/></linearGradient><linearGradient id="b" x1="27.258" y1="72.24" x2="53.748" y2="98.73" gradientUnits="userSpaceOnUse"><stop offset=".002" stop-color="#28C985"/><stop offset="1" stop-color="#18808A"/></linearGradient></defs></svg>