<svg width="169" height="59" fill="none" xmlns="http://www.w3.org/2000/svg"><g clip-path="url(#a)"><path d="M41.672 25.247 26.16 9.66c.291-.868.523-1.755.695-2.655.185-1.102.536-2.17 1.042-3.167a3.2 3.2 0 0 1 .944-.965c.755-.55.808-1.742 0-2.737A.347.347 0 0 0 28.577 0h-.967C12.514 0 .151 11.719 0 26.152v1.04c0 7.292.884 15.655 6.042 23.777a1.623 1.623 0 0 0 2.31.452 1.644 1.644 0 0 0 .439-2.21C4.108 41.778 3.315 33.995 3.3 27.186c.316-.867 2.839-2.489 5.837-3.13 7.122-1.508 12.642-5.542 15.64-11.16l10.777 10.829v21.521h-22.4a1.634 1.634 0 0 0 0 3.266h23.412a2.191 2.191 0 0 0 2.266-2.12V27.148a.06.06 0 0 1 .105 0l.43.438a1.64 1.64 0 0 0 2.312 0 1.628 1.628 0 0 0-.008-2.338zM8.443 20.866a18.897 18.897 0 0 0-4.856 1.847c1.7-10.037 10.248-17.947 20.89-19.26-.366.95-.641 1.933-.824 2.934-1.435 7.337-7.114 12.752-15.195 14.479h-.015z" fill="url(#b)"/><path d="M90.308 39.213a1.18 1.18 0 0 0-.688-.234c-.77.13-1.495.45-2.107.935a6.944 6.944 0 0 1-2.265 1.033c-.8 0-1.42-.58-1.866-1.742a11.81 11.81 0 0 1-.52-3.868 24.998 24.998 0 0 1 1.215-6.832 3.76 3.76 0 0 0 .159-.694c0-.264-.227-.543-.665-.822a2.397 2.397 0 0 0-1.321-.385 4.309 4.309 0 0 0-1.903.845c-.494.404-1.022.765-1.579 1.078a8.052 8.052 0 0 0 .325-2.013 3.217 3.217 0 0 0-1.707-2.888 4.295 4.295 0 0 0-2.205-.604 3.57 3.57 0 0 0-3.3 1.727 3.609 3.609 0 0 0-.522 1.87 4.52 4.52 0 0 0 2.38 4.299l.37.188c-.96 3.575-2.938 6.93-8.61 10.422 1.682-12.066 2.523-18.126 2.523-18.181 0-1.282-.552-1.938-1.556-1.954a1.632 1.632 0 0 0-1.246.574 5.717 5.717 0 0 0-2.606-.573c-2.28 0-4.229 1.239-5.845 3.717a16.175 16.175 0 0 0-2.477 6.99c-.059.55-.09 1.1-.09 1.652 0 3.238.77 5.422 2.31 6.553a4.25 4.25 0 0 0 2.53.754 5.708 5.708 0 0 0 3.202-1.063l-.664 4.494c-2.583 1.936-4.4 3.29-5.453 4.065l-.136.18h-.045a9.455 9.455 0 0 0-2.13 1.977 5.461 5.461 0 0 0-.876 3.182 4.915 4.915 0 0 0 1.563 3.529 5.288 5.288 0 0 0 3.776 1.606 5.51 5.51 0 0 0 3.285-1.078 5.807 5.807 0 0 0 2.22-3.99l1.08-7.616c7.243-5.112 10.604-8.121 12.598-14.674a6.85 6.85 0 0 0 2.507-.649 21.286 21.286 0 0 0-.446 3.665c0 .52-.045 1.018-.045 1.508 0 2.474.297 4.218.891 5.234a4.654 4.654 0 0 0 3.776 2.925h.574a7.317 7.317 0 0 0 4.38-1.508c1.148-.89 1.745-1.757 1.79-2.609a1.327 1.327 0 0 0-.581-1.025zM60.469 52.1c-.211 1.805-.692 2.873-1.442 3.205-.24.096-.496.145-.755.143a1.436 1.436 0 0 1-1.443-1.04 2.13 2.13 0 0 1-.143-.755c0-.754.574-1.56 1.661-2.413 0 0 .8-.633 2.319-1.794l.226-.174-.423 2.828zm2.666-19.244a9.148 9.148 0 0 1-.755 2.45 7.606 7.606 0 0 1-1.714 1.577 2.872 2.872 0 0 1-1.556.64c-.838 0-1.314-.799-1.42-2.405v-.641c.013-2.08.457-4.134 1.307-6.033.99-2.262 2.197-3.537 3.61-3.929.272-.066.55-.1.83-.098a2.54 2.54 0 0 1 1.073.294 65.404 65.404 0 0 1-1.375 8.145zm12.28-4.261a1.85 1.85 0 0 1-1.306-1.674.806.806 0 0 1 .657-.852.855.855 0 0 1 .271-.045.756.756 0 0 1 .854.603c.028.095.044.194.045.294a5.508 5.508 0 0 1-.521 1.674z" fill="#28C985"/><path d="M87.325 37.32a16.06 16.06 0 0 1 2.545-8.612c1.616-2.514 3.567-3.77 5.853-3.77a6.532 6.532 0 0 1 1.767.234c2.014.578 3.021 2.003 3.021 4.275v.528a7.247 7.247 0 0 1-2.75 5.18 8.693 8.693 0 0 1-5.746 2.067c-.408 0-.816-.038-1.216-.113-.035.315-.05.633-.046.95-.043.71.117 1.42.461 2.044.408.618 1.254.98 2.537 1.085.562.001 1.121-.06 1.67-.18a11.457 11.457 0 0 0 3.413-1.607c.853-.558 3.406-2.398 3.776-2.398.219.01.432.075.619.189a1.368 1.368 0 0 1 .756 1.252 1.74 1.74 0 0 1-.114.588c-.415.995-3.602 3.484-5.664 4.366a13.086 13.086 0 0 1-5.052 1.229 8.253 8.253 0 0 1-1.51-.136c-2.875-.558-4.315-2.948-4.32-7.171zm7.378-8.793c-1.39.935-2.48 2.72-3.27 5.354.357.094.725.142 1.095.144a5.027 5.027 0 0 0 3.315-1.177 3.87 3.87 0 0 0 1.579-3.077c0-1.184-.37-1.787-1.118-1.802a3.023 3.023 0 0 0-1.6.558z" fill="#28C985"/><path d="M102.315 37.32c.027-3.056.92-6.042 2.576-8.612 1.626-2.513 3.577-3.77 5.853-3.77a6.533 6.533 0 0 1 1.767.234c2.014.578 3.021 2.003 3.021 4.275v.528a7.191 7.191 0 0 1-2.749 5.18 8.68 8.68 0 0 1-5.748 2.067c-.407 0-.815-.038-1.215-.113-.035.315-.05.633-.046.95-.037.71.122 1.418.461 2.044.408.618 1.261.98 2.545 1.085.561 0 1.121-.06 1.669-.18a11.509 11.509 0 0 0 3.406-1.607c.861-.558 3.414-2.398 3.776-2.398.219.009.433.074.619.189a1.368 1.368 0 0 1 .755 1.252c-.003.2-.041.4-.113.588-.408.995-3.595 3.484-5.664 4.366a13.053 13.053 0 0 1-5.052 1.229 8.176 8.176 0 0 1-1.511-.136c-2.895-.558-4.345-2.948-4.35-7.171zm7.379-8.793c-1.382.935-2.477 2.722-3.27 5.354.36.094.73.142 1.102.144a5.044 5.044 0 0 0 3.316-1.177 3.885 3.885 0 0 0 1.578-3.077c0-1.184-.378-1.787-1.125-1.802a3.066 3.066 0 0 0-1.601.558z" fill="#28C985"/><path d="m116.551 41.98 1.949-14.742c0-.257.068-.505.113-.754.279-1.313.876-1.976 1.79-1.976.17-.002.34.016.506.053.71.166 1.057.83 1.057 1.99 0 .166 0 .46-.045.868v.648a.935.935 0 0 1 .113-.188 5.288 5.288 0 0 1 4.841-2.994c.74-.003 1.463.23 2.062.663a3.217 3.217 0 0 1 1.397 2.73v5.03c0 3.13.098 4.97.279 5.528.046.12.091.248.136.392.431 1.161 1.035 1.75 1.813 1.75.154-.002.308-.017.46-.046a5.877 5.877 0 0 0 1.971-1.108 3.949 3.949 0 0 1 2.024-.913c.202 0 .401.055.574.158a1.45 1.45 0 0 1 .71 1.358c-.09.754-.755 1.568-1.926 2.473a7.555 7.555 0 0 1-4.251 1.418 4.572 4.572 0 0 1-2.983-.92c-1.632-1.312-2.45-4.193-2.455-8.642v-1.561c0-.724.045-1.372.045-1.878 0-1.636-.181-2.473-.551-2.518a.75.75 0 0 0-.226.045c-.871.317-1.989 2.056-3.354 5.218a34.198 34.198 0 0 0-2.265 6.93l-.045.656a3.434 3.434 0 0 1-.461 1.508 1.913 1.913 0 0 1-1.646 1.086c-.19 0-.377-.038-.552-.113-.725-.354-1.08-1.063-1.08-2.149z" fill="#28C985"/><path d="M134.155 36.95c.001-.552.041-1.104.121-1.651a16.075 16.075 0 0 1 2.416-6.96c1.591-2.474 3.502-3.71 5.732-3.71a5.517 5.517 0 0 1 2.832.754 4.06 4.06 0 0 1 2.145 3.77v.573a6.935 6.935 0 0 1-3.731 5.8 9.561 9.561 0 0 1-4.863 1.356 6.046 6.046 0 0 1-1.231-.12 6.193 6.193 0 0 0-.068.912c-.007.514.08 1.026.257 1.508a2.622 2.622 0 0 0 2.703 1.667c2.039-.074 4-.798 5.596-2.066a23.308 23.308 0 0 0 6.125-7.232l-.362-.181a4.568 4.568 0 0 1-2.417-4.313 3.61 3.61 0 0 1 .529-1.87 3.55 3.55 0 0 1 3.292-1.727 4.25 4.25 0 0 1 2.213.603 3.221 3.221 0 0 1 1.707 2.888 8.379 8.379 0 0 1-.325 2.014 10.984 10.984 0 0 0 1.586-1.064 4.323 4.323 0 0 1 1.896-.844c.468-.008.928.123 1.321.377.446.286.672.558.672.83a4.139 4.139 0 0 1-.166.693 25.325 25.325 0 0 0-1.216 6.832c-.043 1.31.136 2.618.529 3.868.446 1.154 1.065 1.735 1.858 1.735.812-.2 1.58-.548 2.265-1.026a4.683 4.683 0 0 1 2.115-.935c.248.005.488.087.687.234a1.316 1.316 0 0 1 .597 1.056c-.046.852-.642 1.72-1.79 2.609a7.318 7.318 0 0 1-4.388 1.508h-.574a4.667 4.667 0 0 1-3.776-2.926c-.589-1.018-.891-2.767-.891-5.233 0-.475 0-.965.053-1.508.037-1.238.186-2.47.446-3.68a6.705 6.705 0 0 1-2.508.64 25.232 25.232 0 0 1-5.286 7.428c-3.248 3.168-6.671 4.751-10.271 4.751h-.37c-3.635-.166-5.455-2.619-5.46-7.36zm7.371-8.65-.114.076c-1.369.935-2.439 2.647-3.209 5.136.359.063.723.093 1.087.09a5.48 5.48 0 0 0 3.444-1.108 3.65 3.65 0 0 0 1.571-2.926 2.613 2.613 0 0 0-.046-.475c-.13-.845-.501-1.282-1.11-1.312a4.365 4.365 0 0 0-1.623.55v-.03zm10.671-.98a1.854 1.854 0 0 0 1.306 1.682c.27-.527.448-1.095.529-1.681a1.032 1.032 0 0 0-.046-.287.751.751 0 0 0-.845-.603.947.947 0 0 0-.28.045.807.807 0 0 0-.664.875v-.03z" fill="#28C985"/></g><defs><linearGradient id="b" x1="0" y1="25.858" x2="42.148" y2="25.858" gradientUnits="userSpaceOnUse"><stop stop-color="#28C985"/><stop offset="1" stop-color="#18808A"/></linearGradient><clipPath id="a"><path fill="#fff" d="M0 0h169v59H0z"/></clipPath></defs></svg>