<svg width="51" height="51" fill="none" xmlns="http://www.w3.org/2000/svg"><path d="m44.761 8.93-.068-.042-8.626-4.25-9.31 12.414 4.284 5.711a8.818 8.818 0 0 1-8.28 8.279l-5.71-4.283-12.413 9.31 4.214 8.553.035.072.043.068a2.499 2.499 0 0 0 2.13 1.181h2.227a32.655 32.655 0 0 0 32.655-32.655v-2.226a2.498 2.498 0 0 0-1.18-2.131zm-2.006 4.357c0 16.25-13.22 29.469-29.468 29.469h-1.801l-2.82-5.724 8.385-6.29 4.669 3.502h.53a12.007 12.007 0 0 0 11.994-11.993v-.531l-3.501-4.668 6.288-8.385 5.724 2.82v1.8z" fill="#A9A9A9"/></svg>