<svg width="32" height="33" viewBox="0 0 32 33" fill="none" xmlns="http://www.w3.org/2000/svg">
<path d="M8.78795 23.6459C8.71 23.5575 8.63206 23.4705 8.56011 23.3776C8.1719 22.8768 8.50015 22.1392 7.91409 21.7599C7.32203 21.3776 6.41972 21.9143 5.86813 21.475C5.62231 21.2801 5.53237 20.9458 5.31203 20.7224C4.92982 20.3356 4.17889 20.412 3.82366 20.8078C3.12518 21.5845 3.98703 22.5155 3.40246 23.3506C3.17014 23.6819 2.88235 24.0342 2.92881 24.436C2.98127 24.8873 3.43095 25.1722 3.84614 25.3581C5.08722 25.9113 7.08671 26.547 8.38324 25.8543C8.99478 25.5275 9.40848 24.7494 9.12219 24.1182C9.04125 23.9428 8.91685 23.7929 8.78795 23.6459Z" fill="#6FB331"/>
<path d="M7.91406 21.7616C7.32201 21.3793 6.4197 21.916 5.86812 21.4767C5.6223 21.2818 5.53236 20.9475 5.31202 20.7241C4.92981 20.3373 4.17889 20.4137 3.82365 20.8095C3.12518 21.5862 3.98702 22.5172 3.40246 23.3523C3.17014 23.6836 2.88235 24.0359 2.92881 24.4377C2.97528 24.8396 3.33802 25.1094 3.70974 25.2953C3.7637 25.1754 3.79518 25.0539 3.80717 24.9355C3.83565 24.6521 3.76969 24.3823 3.72172 24.1109C3.6183 23.5217 4.23883 22.6191 5.22059 23.0554C5.45442 23.1589 5.64777 23.3568 5.95354 23.3013C6.71797 23.1619 6.25332 22.4737 6.55309 22.1724C6.74495 21.979 7.09869 21.865 7.38197 21.9025C7.7432 21.9505 7.94854 22.2069 8.2693 22.2998C8.22133 22.0899 8.1314 21.901 7.91406 21.7616Z" fill="#8DD03C"/>
<path d="M5.78711 29.2953L6.76889 23.4482L6.24876 29.2953H5.78711Z" fill="#684825"/>
<path d="M6.0689 27.6103L5.78711 24.0271L6.39865 27.5699L6.0689 27.6103Z" fill="#684825"/>
<path d="M6.54102 24.886L7.65019 24.2354L6.61446 24.997L6.54102 24.886Z" fill="#684825"/>
<path d="M5.9077 25.3057L4.42383 24.3806L5.97365 25.1902L5.9077 25.3057Z" fill="#684825"/>
<path d="M16.882 8.50903H9.77734V29.3802H16.882V8.50903Z" fill="#FFF9EB"/>
<path d="M16.4129 29.38V8.67673L13.0269 4.55078L9.77734 8.50882V29.38H16.4129Z" fill="#FFF9EB"/>
<path d="M16.8827 29.3806H28.1152L28.1152 8.50945H16.8827V29.3806Z" fill="#8DD9DE"/>
<path d="M24.8235 3.8103H13.0273L16.884 8.50898H28.6801L24.8235 3.8103Z" fill="#275954"/>
<path d="M19.8125 11.7655V10.4237H18.5954V11.7655H19.8125Z" fill="#275954"/>
<path d="M18.6911 11.6694H19.7148V10.5195H18.6911V11.6694Z" fill="#18808A"/>
<path d="M19.6159 11.6694H19.7148V10.5195H19.6159V11.6694Z" fill="#8DD9DE"/>
<path d="M18.4968 11.7668H18.5957V10.425H18.4968V11.7668Z" fill="#FFF9EB"/>
<path d="M22.043 11.7655V10.4237H20.8259V11.7655H22.043Z" fill="#275954"/>
<path d="M20.9216 11.6694H21.9453V10.5195H20.9216V11.6694Z" fill="#18808A"/>
<path d="M21.8464 11.6694H21.9453V10.5195H21.8464V11.6694Z" fill="#8DD9DE"/>
<path d="M20.7272 11.7668H20.8262V10.425H20.7272V11.7668Z" fill="#FFF9EB"/>
<path d="M24.2734 11.766V10.4242H23.0564V11.766H24.2734Z" fill="#275954"/>
<path d="M23.152 11.6699H24.1758V10.52H23.152V11.6699Z" fill="#18808A"/>
<path d="M24.0769 11.6699H24.1758V10.52H24.0769V11.6699Z" fill="#8DD9DE"/>
<path d="M22.9577 11.7673H23.0566V10.4255H22.9577V11.7673Z" fill="#FFF9EB"/>
<path d="M26.5039 11.766V10.4242H25.2868V11.766H26.5039Z" fill="#275954"/>
<path d="M25.3825 11.6694H26.4062V10.5195H25.3825V11.6694Z" fill="#18808A"/>
<path d="M26.3073 11.6694H26.4062V10.5195H26.3073V11.6694Z" fill="#8DD9DE"/>
<path d="M25.1882 11.7668H25.2871V10.425H25.1882V11.7668Z" fill="#FFF9EB"/>
<path d="M19.8105 14.0794V12.7375H18.5934V14.0794H19.8105Z" fill="#275954"/>
<path d="M18.6911 13.9836H19.7148V12.8337H18.6911V13.9836Z" fill="#18808A"/>
<path d="M19.6159 13.9836H19.7148V12.8337H19.6159V13.9836Z" fill="#8DD9DE"/>
<path d="M18.4968 14.0798H18.5957V12.738H18.4968V14.0798Z" fill="#FFF9EB"/>
<path d="M22.041 14.0797V12.7379H20.8239V14.0797H22.041Z" fill="#275954"/>
<path d="M20.9216 13.984H21.9453V12.8341H20.9216V13.984Z" fill="#18808A"/>
<path d="M21.8464 13.984H21.9453V12.8341H21.8464V13.984Z" fill="#8DD9DE"/>
<path d="M20.7272 14.0802H20.8262V12.7384H20.7272V14.0802Z" fill="#FFF9EB"/>
<path d="M24.2715 14.0797V12.7379H23.0544V14.0797H24.2715Z" fill="#275954"/>
<path d="M23.152 13.984H24.1758V12.8341H23.152V13.984Z" fill="#18808A"/>
<path d="M24.0769 13.984H24.1758V12.8341H24.0769V13.984Z" fill="#8DD9DE"/>
<path d="M22.9577 14.0797H23.0566V12.7379H22.9577V14.0797Z" fill="#FFF9EB"/>
<path d="M26.502 14.0797V12.7379H25.2849V14.0797H26.502Z" fill="#275954"/>
<path d="M25.3825 13.9836H26.4062V12.8337H25.3825V13.9836Z" fill="#18808A"/>
<path d="M26.3073 13.9836H26.4062V12.8337H26.3073V13.9836Z" fill="#8DD9DE"/>
<path d="M25.1882 14.0797H25.2871V12.7379H25.1882V14.0797Z" fill="#FFF9EB"/>
<path d="M19.8105 16.3936V15.0518H18.5935V16.3936H19.8105Z" fill="#275954"/>
<path d="M18.6911 16.2987H19.7148V15.1488H18.6911V16.2987Z" fill="#18808A"/>
<path d="M19.6159 16.2987H19.7148V15.1488H19.6159V16.2987Z" fill="#8DD9DE"/>
<path d="M18.4968 16.3949H18.5957V15.0531H18.4968V16.3949Z" fill="#FFF9EB"/>
<path d="M22.043 16.3936V15.0518H20.8259V16.3936H22.043Z" fill="#275954"/>
<path d="M20.9216 16.2987H21.9453V15.1488H20.9216V16.2987Z" fill="#18808A"/>
<path d="M21.8464 16.2987H21.9453V15.1488H21.8464V16.2987Z" fill="#8DD9DE"/>
<path d="M20.7272 16.3944H20.8262V15.0526H20.7272V16.3944Z" fill="#FFF9EB"/>
<path d="M24.2734 16.3936V15.0518H23.0563V16.3936H24.2734Z" fill="#275954"/>
<path d="M23.152 16.2983H24.1758V15.1484H23.152V16.2983Z" fill="#18808A"/>
<path d="M24.0769 16.2983H24.1758V15.1484H24.0769V16.2983Z" fill="#8DD9DE"/>
<path d="M22.9577 16.3944H23.0566V15.0526H22.9577V16.3944Z" fill="#FFF9EB"/>
<path d="M26.5039 16.3936V15.0518H25.2868V16.3936H26.5039Z" fill="#275954"/>
<path d="M25.3825 16.2983H26.4062V15.1484H25.3825V16.2983Z" fill="#18808A"/>
<path d="M26.3073 16.2983H26.4062V15.1484H26.3073V16.2983Z" fill="#8DD9DE"/>
<path d="M25.1882 16.3944H25.2871V15.0526H25.1882V16.3944Z" fill="#FFF9EB"/>
<path d="M19.8125 18.7073V17.3655H18.5954V18.7073H19.8125Z" fill="#275954"/>
<path d="M18.6911 18.6116H19.7148V17.4616H18.6911V18.6116Z" fill="#18808A"/>
<path d="M19.6159 18.6116H19.7148V17.4616H19.6159V18.6116Z" fill="#8DD9DE"/>
<path d="M18.4968 18.7073H18.5957V17.3654H18.4968V18.7073Z" fill="#FFF9EB"/>
<path d="M22.043 18.7073V17.3655H20.8259V18.7073H22.043Z" fill="#275954"/>
<path d="M20.9216 18.6116H21.9453V17.4616H20.9216V18.6116Z" fill="#18808A"/>
<path d="M21.8464 18.6116H21.9453V17.4616H21.8464V18.6116Z" fill="#8DD9DE"/>
<path d="M20.7272 18.7073H20.8262V17.3654H20.7272V18.7073Z" fill="#FFF9EB"/>
<path d="M24.2734 18.7073V17.3655H23.0563V18.7073H24.2734Z" fill="#275954"/>
<path d="M23.152 18.6112H24.1758V17.4613H23.152V18.6112Z" fill="#18808A"/>
<path d="M24.0769 18.6112H24.1758V17.4613H24.0769V18.6112Z" fill="#8DD9DE"/>
<path d="M22.9577 18.7073H23.0566V17.3654H22.9577V18.7073Z" fill="#FFF9EB"/>
<path d="M26.5039 18.7073V17.3655H25.2868V18.7073H26.5039Z" fill="#275954"/>
<path d="M25.3825 18.6112H26.4062V17.4613H25.3825V18.6112Z" fill="#18808A"/>
<path d="M26.3073 18.6112H26.4062V17.4613H26.3073V18.6112Z" fill="#8DD9DE"/>
<path d="M25.1882 18.7073H25.2871V17.3654H25.1882V18.7073Z" fill="#FFF9EB"/>
<path d="M19.8105 21.0211V19.6793H18.5934V21.0211H19.8105Z" fill="#275954"/>
<path d="M18.6911 20.9259H19.7148V19.776H18.6911V20.9259Z" fill="#18808A"/>
<path d="M19.6159 20.9259H19.7148V19.776H19.6159V20.9259Z" fill="#8DD9DE"/>
<path d="M18.4968 21.022H18.5957V19.6801H18.4968V21.022Z" fill="#FFF9EB"/>
<path d="M22.041 21.0215V19.6797H20.8239V21.0215H22.041Z" fill="#275954"/>
<path d="M20.9216 20.9263H21.9453V19.7763H20.9216V20.9263Z" fill="#18808A"/>
<path d="M21.8464 20.9263H21.9453V19.7763H21.8464V20.9263Z" fill="#8DD9DE"/>
<path d="M20.7272 21.022H20.8262V19.6801H20.7272V21.022Z" fill="#FFF9EB"/>
<path d="M24.2715 21.0215V19.6797H23.0544V21.0215H24.2715Z" fill="#275954"/>
<path d="M23.152 20.9263H24.1758V19.7763H23.152V20.9263Z" fill="#18808A"/>
<path d="M24.0769 20.9263H24.1758V19.7763H24.0769V20.9263Z" fill="#8DD9DE"/>
<path d="M22.9577 21.022H23.0566V19.6801H22.9577V21.022Z" fill="#FFF9EB"/>
<path d="M26.502 21.0215V19.6797H25.2849V21.0215H26.502Z" fill="#275954"/>
<path d="M25.3825 20.9258H26.4062V19.7758H25.3825V20.9258Z" fill="#18808A"/>
<path d="M26.3073 20.9258H26.4062V19.7758H26.3073V20.9258Z" fill="#8DD9DE"/>
<path d="M25.1882 21.022H25.2871V19.6801H25.1882V21.022Z" fill="#FFF9EB"/>
<path d="M24.2734 23.3354V21.9935H23.0563V23.3354H24.2734Z" fill="#275954"/>
<path d="M23.152 23.2393H24.1758V22.0893H23.152V23.2393Z" fill="#18808A"/>
<path d="M24.0769 23.2393H24.1758V22.0893H24.0769V23.2393Z" fill="#8DD9DE"/>
<path d="M22.9577 23.3362H23.0566V21.9943H22.9577V23.3362Z" fill="#FFF9EB"/>
<path d="M26.5039 23.3358V21.994H25.2868V23.3358H26.5039Z" fill="#275954"/>
<path d="M25.3825 23.2393H26.4062V22.0893H25.3825V23.2393Z" fill="#18808A"/>
<path d="M26.3073 23.2393H26.4062V22.0893H26.3073V23.2393Z" fill="#8DD9DE"/>
<path d="M25.1882 23.3367H25.2871V21.9948H25.1882V23.3367Z" fill="#FFF9EB"/>
<path d="M24.2715 25.6496V24.3077H23.0544V25.6496H24.2715Z" fill="#275954"/>
<path d="M23.152 25.5538H24.1758V24.4039H23.152V25.5538Z" fill="#18808A"/>
<path d="M24.0769 25.5538H24.1758V24.4039H24.0769V25.5538Z" fill="#8DD9DE"/>
<path d="M22.9577 25.6495H23.0566V24.3077H22.9577V25.6495Z" fill="#FFF9EB"/>
<path d="M26.502 25.6496V24.3077H25.2849V25.6496H26.502Z" fill="#275954"/>
<path d="M25.3825 25.5538H26.4062V24.4039H25.3825V25.5538Z" fill="#18808A"/>
<path d="M26.3073 25.5538H26.4062V24.4039H26.3073V25.5538Z" fill="#8DD9DE"/>
<path d="M25.1882 25.6495H25.2871V24.3077H25.1882V25.6495Z" fill="#FFF9EB"/>
<path d="M13.0265 3.8103L16.8831 8.50897H28.6793L28.3031 8.77884L16.4979 8.78034L13.0265 4.55094L9.77696 8.50897H9.16992L13.0265 3.8103Z" fill="#8DD9DE"/>
<path fill-rule="evenodd" clip-rule="evenodd" d="M31.505 29.9383H1.54492V29.3156H31.505V29.9383Z" fill="#275954"/>
</svg>
