<svg width="32" height="33" viewBox="0 0 32 33" fill="none" xmlns="http://www.w3.org/2000/svg">
<path d="M18.8405 14.9884H9.61133V25.01H18.8405V14.9884Z" fill="#275954"/>
<path d="M18.2296 25.01V15.2066L13.832 9.84705L9.61133 14.9885V25.01H18.2296Z" fill="#275954"/>
<path d="M18.8419 25.0112H30.5723V14.9897L18.8419 14.9897V25.0112Z" fill="#8DD9DE"/>
<path d="M26.2946 8.88623H13.832L18.8405 14.9885H31.3031L26.2946 8.88623Z" fill="#8DD9DE"/>
<path d="M28.9121 20.0037V17.2159H27.0527V20.0037H28.9121Z" fill="#8DD9DE"/>
<path d="M27.2003 19.8568H28.7656V17.3632H27.2003V19.8568Z" fill="#18808A"/>
<path d="M28.6134 19.8568H28.7656V17.3632H28.6134V19.8568Z" fill="#8DD9DE"/>
<path d="M26.9005 20.0029H27.0527V17.2152H26.9005V20.0029Z" fill="#FFF9EB"/>
<path d="M25.5645 20.0032V17.2155H23.705V20.0032H25.5645Z" fill="#8DD9DE"/>
<path d="M23.8527 19.8568H25.418V17.3632H23.8527V19.8568Z" fill="#18808A"/>
<path d="M25.2658 19.8568H25.418V17.3632H25.2658V19.8568Z" fill="#8DD9DE"/>
<path d="M23.5529 20.0029H23.7051V17.2152H23.5529L23.5529 20.0029Z" fill="#FFF9EB"/>
<path d="M22.2168 20.0029V17.2151H20.3574V20.0029H22.2168Z" fill="#8DD9DE"/>
<path d="M20.505 19.8569H22.0703V17.3634H20.505V19.8569Z" fill="#18808A"/>
<path d="M21.9162 19.8569H22.0684V17.3634H21.9162V19.8569Z" fill="#8DD9DE"/>
<path d="M20.2052 20.0031H20.3574V17.2153H20.2052L20.2052 20.0031Z" fill="#FFF9EB"/>
<path d="M13.8328 8.88623L18.8413 14.9885H31.3039L30.8164 15.3382L18.3415 15.3403L13.8328 9.84704L9.6121 14.9885H8.82227L13.8328 8.88623Z" fill="#FFF9EB"/>
<path d="M5.455 20.893L15.5686 20.5659L15.7887 20.893L12.4093 25.0099H2.07556L1.85547 24.6828L5.455 20.893Z" fill="#A5B2BF"/>
<path d="M5.23492 20.5659H15.5686L12.1892 24.6828H1.85547L5.23492 20.5659Z" fill="#FFF9EB"/>
<path d="M5.53123 20.928H8.26687L6.99161 22.4854H4.25391L5.53123 20.928Z" fill="#18808A"/>
<path d="M8.73435 20.928H11.47L10.1927 22.4854H7.45703L8.73435 20.928Z" fill="#18808A"/>
<path d="M11.9336 20.928H14.6713L13.394 22.4854H10.6562L11.9336 20.928Z" fill="#18808A"/>
<path d="M4.02927 22.7655H6.76696L5.48965 24.3209H2.75195L4.02927 22.7655Z" fill="#18808A"/>
<path d="M7.2324 22.7655H9.96804L8.69072 24.3209H5.95508L7.2324 22.7655Z" fill="#18808A"/>
<path d="M10.4336 22.7655H13.1692L11.8919 24.3209H9.15625L10.4336 22.7655Z" fill="#18808A"/>
<path d="M5.35639 21.14L4.25391 22.4856H6.99161L7.21992 22.2037L5.35639 21.14Z" fill="#8DD9DE"/>
<path d="M3.85649 22.9772L2.75195 24.3207H5.48965L5.72002 24.0408L3.85649 22.9772Z" fill="#8DD9DE"/>
<path d="M7.05756 22.9772L5.95508 24.3207H8.69072L8.92109 24.0408L7.05756 22.9772Z" fill="#8DD9DE"/>
<path d="M10.2587 22.9772L9.15625 24.3207H11.8919L12.1223 24.0408L10.2587 22.9772Z" fill="#8DD9DE"/>
<path d="M8.55952 21.14L7.45703 22.4856H10.1927L10.423 22.2037L8.55952 21.14Z" fill="#8DD9DE"/>
<path d="M11.7608 21.14L10.6562 22.4856H13.394L13.6243 22.2037L11.7608 21.14Z" fill="#8DD9DE"/>
<path d="M12.4093 25.0099L12.1892 24.6827H1.85547L2.07556 25.0099H12.4093Z" fill="#808F9B"/>
<path d="M14.4835 22.4854L15.7896 24.9789L12.4102 25.0098L14.4835 22.4854Z" fill="#808F9B"/>
<path d="M14.1461 22.897L15.2383 24.9832L12.4102 25.0099L14.1461 22.897Z" fill="#657682"/>
<path fill-rule="evenodd" clip-rule="evenodd" d="M31.505 25.0781H1.54492V24.4553H31.505V25.0781Z" fill="#275954"/>
</svg>
