<svg width="32" height="33" viewBox="0 0 32 33" fill="none" xmlns="http://www.w3.org/2000/svg">
<path d="M2.875 7.07514C2.875 6.26549 3.53136 5.60913 4.34101 5.60913H26.4384C27.2481 5.60913 27.9044 6.26549 27.9044 7.07514V9.34203H2.875V7.07514Z" fill="#18808A"/>
<path d="M9.30872 13.4143H7.21289V15.5005H9.30872V13.4143Z" fill="#18808A"/>
<path d="M13.3126 13.4143H11.2168V15.5005H13.3126V13.4143Z" fill="#18808A"/>
<path fill-rule="evenodd" clip-rule="evenodd" d="M20.6287 14.0251H19.8278V14.8396H20.6287V14.0251ZM21.4296 15.2468C21.4296 15.4716 21.2502 15.654 21.0292 15.654H19.4273C19.2062 15.654 19.0268 15.4716 19.0268 15.2468V13.6179C19.0268 13.3931 19.2062 13.2107 19.4273 13.2107H21.0292C21.2502 13.2107 21.4296 13.3931 21.4296 13.6179V15.2468ZM12.6193 22.1696H11.8183V22.9841H12.6193V22.1696ZM13.4202 21.7624V23.3913C13.4202 23.6161 13.2408 23.7985 13.0197 23.7985H11.4179C11.1968 23.7985 11.0174 23.6161 11.0174 23.3913V21.7624C11.0174 21.5376 11.1968 21.3552 11.4179 21.3552H13.0197C13.2408 21.3552 13.4202 21.5376 13.4202 21.7624ZM8.61457 22.1696H7.81363V22.9841H8.61457V22.1696ZM9.41551 21.7624V23.3913C9.41551 23.6161 9.2361 23.7985 9.01504 23.7985H7.41315C7.19209 23.7985 7.01268 23.6161 7.01268 23.3913V21.7624C7.01268 21.5376 7.19209 21.3552 7.41315 21.3552H9.01504C9.2361 21.3552 9.41551 21.5376 9.41551 21.7624ZM16.624 14.0251H15.823V14.8396H16.624V14.0251ZM17.4249 15.2468C17.4249 15.4716 17.2455 15.654 17.0245 15.654H15.4226C15.2015 15.654 15.0221 15.4716 15.0221 15.2468V13.6179C15.0221 13.3931 15.2015 13.2107 15.4226 13.2107H17.0245C17.2455 13.2107 17.4249 13.3931 17.4249 13.6179V15.2468ZM16.624 18.0974H15.823V18.9118H16.624V18.0974ZM17.0245 19.7263H15.4226C15.2015 19.7263 15.0221 19.5438 15.0221 19.319V17.6901C15.0221 17.4653 15.2015 17.2829 15.4226 17.2829H17.0245C17.2455 17.2829 17.4249 17.4653 17.4249 17.6901V19.319C17.4249 19.5438 17.2455 19.7263 17.0245 19.7263ZM12.6193 18.0974H11.8183V18.9118H12.6193V18.0974ZM13.4202 19.319C13.4202 19.5438 13.2408 19.7263 13.0197 19.7263H11.4179C11.1968 19.7263 11.0174 19.5438 11.0174 19.319V17.6901C11.0174 17.4653 11.1968 17.2829 11.4179 17.2829H13.0197C13.2408 17.2829 13.4202 17.4653 13.4202 17.6901V19.319ZM12.6193 14.0251H11.8183V14.8396H12.6193V14.0251ZM13.4202 15.2468C13.4202 15.4716 13.2408 15.654 13.0197 15.654H11.4179C11.1968 15.654 11.0174 15.4716 11.0174 15.2468V13.6179C11.0174 13.3931 11.1968 13.2107 11.4179 13.2107H13.0197C13.2408 13.2107 13.4202 13.3931 13.4202 13.6179V15.2468ZM8.61457 18.0974H7.81363V18.9118H8.61457V18.0974ZM9.41551 19.319C9.41551 19.5438 9.2361 19.7263 9.01504 19.7263H7.41315C7.19209 19.7263 7.01268 19.5438 7.01268 19.319V17.6901C7.01268 17.4653 7.19209 17.2829 7.41315 17.2829H9.01504C9.2361 17.2829 9.41551 17.4653 9.41551 17.6901V19.319ZM8.61457 14.0251H7.81363V14.8396H8.61457V14.0251ZM9.41551 15.2468C9.41551 15.4716 9.2361 15.654 9.01504 15.654H7.41315C7.19209 15.654 7.01268 15.4716 7.01268 15.2468V13.6179C7.01268 13.3931 7.19209 13.2107 7.41315 13.2107H9.01504C9.2361 13.2107 9.41551 13.3931 9.41551 13.6179V15.2468ZM19.8278 7.10228C19.8278 7.32666 20.0076 7.50951 20.2282 7.50951C20.4489 7.50951 20.6287 7.32666 20.6287 7.10228V5.47338C20.6287 5.249 20.4489 5.06616 20.2282 5.06616C20.0076 5.06616 19.8278 5.249 19.8278 5.47338V7.10228ZM19.0268 7.10228V5.47338C19.0268 4.79983 19.5658 4.25171 20.2282 4.25171C20.8906 4.25171 21.4296 4.79983 21.4296 5.47338V7.10228C21.4296 7.77583 20.8906 8.32396 20.2282 8.32396C19.5658 8.32396 19.0268 7.77583 19.0268 7.10228ZM15.823 7.10228C15.823 7.32666 16.0029 7.50951 16.2235 7.50951C16.4442 7.50951 16.624 7.32666 16.624 7.10228V5.47338C16.624 5.249 16.4442 5.06616 16.2235 5.06616C16.0029 5.06616 15.823 5.249 15.823 5.47338V7.10228ZM15.0221 7.10228V5.47338C15.0221 4.79983 15.5611 4.25171 16.2235 4.25171C16.8859 4.25171 17.4249 4.79983 17.4249 5.47338V7.10228C17.4249 7.77583 16.8859 8.32396 16.2235 8.32396C15.5611 8.32396 15.0221 7.77583 15.0221 7.10228ZM11.8183 7.10228C11.8183 7.32666 11.9981 7.50951 12.2188 7.50951C12.4395 7.50951 12.6193 7.32666 12.6193 7.10228V5.47338C12.6193 5.249 12.4395 5.06616 12.2188 5.06616C11.9981 5.06616 11.8183 5.249 11.8183 5.47338V7.10228ZM11.0174 7.10228V5.47338C11.0174 4.79983 11.5564 4.25171 12.2188 4.25171C12.8812 4.25171 13.4202 4.79983 13.4202 5.47338V7.10228C13.4202 7.77583 12.8812 8.32396 12.2188 8.32396C11.5564 8.32396 11.0174 7.77583 11.0174 7.10228ZM7.81363 7.10228C7.81363 7.32666 7.99344 7.50951 8.2141 7.50951C8.43476 7.50951 8.61457 7.32666 8.61457 7.10228V5.47338C8.61457 5.249 8.43476 5.06616 8.2141 5.06616C7.99344 5.06616 7.81363 5.249 7.81363 5.47338V7.10228ZM7.01268 7.10228V5.47338C7.01268 4.79983 7.55172 4.25171 8.2141 4.25171C8.87648 4.25171 9.41551 4.79983 9.41551 5.47338V7.10228C9.41551 7.77583 8.87648 8.32396 8.2141 8.32396C7.55172 8.32396 7.01268 7.77583 7.01268 7.10228ZM26.569 24.0034C26.7901 24.0034 26.9695 23.821 26.9695 23.5962V11.1745C26.9695 10.9497 26.7901 10.7673 26.569 10.7673H4.20939C3.98833 10.7673 3.80892 10.9497 3.80892 11.1745V24.4093C3.80892 25.3077 4.52736 26.0382 5.4108 26.0382H25.0339C25.2549 26.0382 25.4344 25.8558 25.4344 25.631C25.4344 25.4062 25.2549 25.2238 25.0339 25.2238H5.4108C4.96908 25.2238 4.60986 24.8585 4.60986 24.4093V11.5818H26.1685V23.5962C26.1685 23.821 26.348 24.0034 26.569 24.0034ZM25.7681 26.8527H4.20939C3.6255 26.8527 3.00797 26.2248 3.00797 25.631V9.95286H26.569C26.7901 9.95286 26.9695 9.77042 26.9695 9.54563C26.9695 9.32085 26.7901 9.13841 26.569 9.13841H2.6075C2.38644 9.13841 2.20703 9.32085 2.20703 9.54563V25.631C2.20703 26.6776 3.18018 27.6671 4.20939 27.6671C4.20939 27.6671 25.547 27.6671 25.7681 27.6671C25.7714 27.6671 25.7747 27.6671 25.7779 27.667C25.9944 27.6617 26.1685 27.4814 26.1685 27.2599C26.1685 27.0351 25.9891 26.8527 25.7681 26.8527ZM26.569 5.06616H22.6311C22.41 5.06616 22.2306 5.2486 22.2306 5.47338C22.2306 5.69817 22.41 5.88061 22.6311 5.88061H26.569C27.1529 5.88061 27.7704 6.50855 27.7704 7.10228V24.2386C27.7704 24.4634 27.9498 24.6458 28.1709 24.6458C28.1952 24.6458 28.2191 24.6436 28.2422 24.6394C28.4293 24.6051 28.5714 24.4386 28.5714 24.2386V7.10228C28.5714 6.05572 27.5982 5.06616 26.569 5.06616ZM2.20703 7.91673V7.10228C2.20703 6.05572 3.18018 5.06616 4.20939 5.06616H5.81127C6.03233 5.06616 6.21174 5.2486 6.21174 5.47338C6.21174 5.69817 6.03233 5.88061 5.81127 5.88061H4.20939C3.6255 5.88061 3.00797 6.50855 3.00797 7.10228V7.91673C3.00797 8.14152 2.82856 8.32396 2.6075 8.32396C2.38644 8.32396 2.20703 8.14152 2.20703 7.91673Z" fill="#1E1D4C"/>
<path fill-rule="evenodd" clip-rule="evenodd" d="M25.401 15.2468C25.401 15.4716 25.2216 15.654 25.0005 15.654H23.3986C23.1776 15.654 22.9982 15.4716 22.9982 15.2468V13.6179C22.9982 13.3931 23.1776 13.2107 23.3986 13.2107H25.0005C25.2216 13.2107 25.401 13.3931 25.401 13.6179V15.2468ZM23.7991 14.0251H24.6V14.8396H23.7991V14.0251Z" fill="#1E1D4C"/>
<path fill-rule="evenodd" clip-rule="evenodd" d="M17.0245 23.7985H15.4226C15.2015 23.7985 15.0221 23.6161 15.0221 23.3913V21.7624C15.0221 21.5376 15.2015 21.3552 15.4226 21.3552H17.0245C17.2455 21.3552 17.4249 21.5376 17.4249 21.7624V23.3913C17.4249 23.6161 17.2455 23.7985 17.0245 23.7985ZM15.8231 22.1696H16.624V22.9841H15.8231V22.1696Z" fill="#1E1D4C"/>
<path fill-rule="evenodd" clip-rule="evenodd" d="M21.0292 19.7263H19.4273C19.2062 19.7263 19.0268 19.5438 19.0268 19.319V17.6901C19.0268 17.4653 19.2062 17.2829 19.4273 17.2829H21.0292C21.2502 17.2829 21.4296 17.4653 21.4296 17.6901V19.319C21.4296 19.5438 21.2502 19.7263 21.0292 19.7263ZM19.8278 18.0974H20.6287V18.9118H19.8278V18.0974Z" fill="#1E1D4C"/>
<path fill-rule="evenodd" clip-rule="evenodd" d="M25.0339 23.7985H23.432C23.2109 23.7985 23.0315 23.6161 23.0315 23.3913V21.7624C23.0315 21.5376 23.2109 21.3552 23.432 21.3552H25.0339C25.2549 21.3552 25.4344 21.5376 25.4344 21.7624V23.3913C25.4344 23.6161 25.2549 23.7985 25.0339 23.7985ZM23.8325 22.1696H24.6334V22.9841H23.8325V22.1696Z" fill="#1E1D4C"/>
<path fill-rule="evenodd" clip-rule="evenodd" d="M21.0292 23.7985H19.4273C19.2062 23.7985 19.0268 23.6161 19.0268 23.3913V21.7624C19.0268 21.5376 19.2062 21.3552 19.4273 21.3552H21.0292C21.2502 21.3552 21.4296 21.5376 21.4296 21.7624V23.3913C21.4296 23.6161 21.2502 23.7985 21.0292 23.7985ZM19.8278 22.1696H20.6287V22.9841H19.8278V22.1696Z" fill="#1E1D4C"/>
<path fill-rule="evenodd" clip-rule="evenodd" d="M24.979 19.7263H23.3771C23.156 19.7263 22.9766 19.5438 22.9766 19.319V17.6901C22.9766 17.4653 23.156 17.2829 23.3771 17.2829H24.979C25.2 17.2829 25.3794 17.4653 25.3794 17.6901V19.319C25.3794 19.5438 25.2 19.7263 24.979 19.7263ZM23.7776 18.0974H24.5785V18.9118H23.7776V18.0974Z" fill="#1E1D4C"/>
<path fill-rule="evenodd" clip-rule="evenodd" d="M26.4823 27.6672C27.5793 27.6672 28.5711 26.6452 28.5711 25.5482V23.8931H27.7694V25.5482C27.7694 26.2795 27.2137 26.8525 26.4824 26.8525H25.1582V27.6672H26.4823Z" fill="#1E1D4C"/>
<path fill-rule="evenodd" clip-rule="evenodd" d="M24.9374 26.0454C26.0344 26.0454 26.9693 24.8797 26.9693 23.7827V22.1276H26.1693V23.7827C26.1693 24.514 25.6688 25.2172 24.9374 25.2172H23.6133V26.0454H24.9374Z" fill="#1E1D4C"/>
</svg>
